<mxfile host="Electron" agent="Mozilla/5.0 (X11; Linux x86_64) AppleWebKit/537.36 (KHTML, like Gecko) draw.io/24.7.5 Chrome/126.0.6478.183 Electron/31.3.0 Safari/537.36" version="24.7.5">
  <diagram name="Page-1" id="sbCdcg1ejwXPBJS0pfgE">
    <mxGraphModel dx="989" dy="576" grid="1" gridSize="10" guides="1" tooltips="1" connect="1" arrows="1" fold="1" page="1" pageScale="1" pageWidth="850" pageHeight="1100" math="0" shadow="0">
      <root>
        <mxCell id="0" />
        <mxCell id="1" parent="0" />
        <mxCell id="o1F89AF8R_W4kwE92R5T-3" style="edgeStyle=orthogonalEdgeStyle;rounded=0;orthogonalLoop=1;jettySize=auto;html=1;exitX=0.5;exitY=1;exitDx=0;exitDy=0;" edge="1" parent="1" source="o1F89AF8R_W4kwE92R5T-2">
          <mxGeometry relative="1" as="geometry">
            <mxPoint x="239.9655172413793" y="280.0000000000001" as="targetPoint" />
          </mxGeometry>
        </mxCell>
        <mxCell id="o1F89AF8R_W4kwE92R5T-2" value="VPN" style="rounded=0;whiteSpace=wrap;html=1;fontSize=16;fillColor=#dae8fc;strokeColor=#6c8ebf;" vertex="1" parent="1">
          <mxGeometry x="160" y="200" width="160" height="40" as="geometry" />
        </mxCell>
        <mxCell id="o1F89AF8R_W4kwE92R5T-10" style="edgeStyle=orthogonalEdgeStyle;rounded=0;orthogonalLoop=1;jettySize=auto;html=1;exitX=0.5;exitY=1;exitDx=0;exitDy=0;entryX=0;entryY=0.5;entryDx=0;entryDy=0;" edge="1" parent="1" source="o1F89AF8R_W4kwE92R5T-4" target="o1F89AF8R_W4kwE92R5T-5">
          <mxGeometry relative="1" as="geometry" />
        </mxCell>
        <mxCell id="o1F89AF8R_W4kwE92R5T-4" value="Hash&lt;div&gt;Function&lt;/div&gt;" style="rounded=0;whiteSpace=wrap;html=1;fontSize=16;fillColor=#d5e8d4;strokeColor=#82b366;" vertex="1" parent="1">
          <mxGeometry x="190" y="280" width="100" height="60" as="geometry" />
        </mxCell>
        <mxCell id="o1F89AF8R_W4kwE92R5T-5" value="" style="rounded=0;whiteSpace=wrap;html=1;fillColor=#f5f5f5;fontColor=#333333;strokeColor=#666666;" vertex="1" parent="1">
          <mxGeometry x="400" y="200" width="80" height="240" as="geometry" />
        </mxCell>
        <mxCell id="o1F89AF8R_W4kwE92R5T-6" value="" style="rounded=0;whiteSpace=wrap;html=1;fillColor=#f5f5f5;fontColor=#333333;strokeColor=#666666;" vertex="1" parent="1">
          <mxGeometry x="560" y="120" width="80" height="400" as="geometry" />
        </mxCell>
        <mxCell id="o1F89AF8R_W4kwE92R5T-7" value="" style="endArrow=none;dashed=1;html=1;dashPattern=1 3;strokeWidth=2;rounded=0;exitX=1;exitY=0;exitDx=0;exitDy=0;entryX=0;entryY=0;entryDx=0;entryDy=0;" edge="1" parent="1" source="o1F89AF8R_W4kwE92R5T-5" target="o1F89AF8R_W4kwE92R5T-6">
          <mxGeometry width="50" height="50" relative="1" as="geometry">
            <mxPoint x="510" y="200" as="sourcePoint" />
            <mxPoint x="560" y="150" as="targetPoint" />
          </mxGeometry>
        </mxCell>
        <mxCell id="o1F89AF8R_W4kwE92R5T-8" value="" style="endArrow=none;dashed=1;html=1;dashPattern=1 3;strokeWidth=2;rounded=0;exitX=1;exitY=1;exitDx=0;exitDy=0;entryX=0;entryY=1;entryDx=0;entryDy=0;" edge="1" parent="1" source="o1F89AF8R_W4kwE92R5T-5" target="o1F89AF8R_W4kwE92R5T-6">
          <mxGeometry width="50" height="50" relative="1" as="geometry">
            <mxPoint x="450" y="530" as="sourcePoint" />
            <mxPoint x="530" y="450" as="targetPoint" />
          </mxGeometry>
        </mxCell>
        <mxCell id="o1F89AF8R_W4kwE92R5T-23" style="edgeStyle=orthogonalEdgeStyle;rounded=0;orthogonalLoop=1;jettySize=auto;html=1;exitX=1;exitY=0.5;exitDx=0;exitDy=0;entryX=0;entryY=0.5;entryDx=0;entryDy=0;" edge="1" parent="1" source="o1F89AF8R_W4kwE92R5T-11" target="o1F89AF8R_W4kwE92R5T-14">
          <mxGeometry relative="1" as="geometry" />
        </mxCell>
        <mxCell id="o1F89AF8R_W4kwE92R5T-11" value="PTE" style="rounded=0;whiteSpace=wrap;html=1;fillColor=#fff2cc;strokeColor=#d6b656;" vertex="1" parent="1">
          <mxGeometry x="400" y="310" width="80" height="20" as="geometry" />
        </mxCell>
        <mxCell id="o1F89AF8R_W4kwE92R5T-14" value="Page Frame" style="rounded=0;whiteSpace=wrap;html=1;fillColor=#ffe6cc;strokeColor=#d79b00;" vertex="1" parent="1">
          <mxGeometry x="560" y="250" width="80" height="40" as="geometry" />
        </mxCell>
        <mxCell id="o1F89AF8R_W4kwE92R5T-15" value="PTE" style="rounded=0;whiteSpace=wrap;html=1;fillColor=#fff2cc;strokeColor=#d6b656;" vertex="1" parent="1">
          <mxGeometry x="400" y="360" width="80" height="20" as="geometry" />
        </mxCell>
        <mxCell id="o1F89AF8R_W4kwE92R5T-22" style="edgeStyle=orthogonalEdgeStyle;rounded=0;orthogonalLoop=1;jettySize=auto;html=1;exitX=1;exitY=0.5;exitDx=0;exitDy=0;entryX=0;entryY=0.5;entryDx=0;entryDy=0;" edge="1" parent="1" source="o1F89AF8R_W4kwE92R5T-16" target="o1F89AF8R_W4kwE92R5T-21">
          <mxGeometry relative="1" as="geometry" />
        </mxCell>
        <mxCell id="o1F89AF8R_W4kwE92R5T-16" value="PTE" style="rounded=0;whiteSpace=wrap;html=1;fillColor=#fff2cc;strokeColor=#d6b656;" vertex="1" parent="1">
          <mxGeometry x="400" y="380" width="80" height="20" as="geometry" />
        </mxCell>
        <mxCell id="o1F89AF8R_W4kwE92R5T-19" value="" style="endArrow=classic;html=1;rounded=0;edgeStyle=orthogonalEdgeStyle;curved=1;exitX=1;exitY=0.5;exitDx=0;exitDy=0;fillColor=#f8cecc;strokeColor=#b85450;" edge="1" parent="1" source="o1F89AF8R_W4kwE92R5T-11">
          <mxGeometry width="50" height="50" relative="1" as="geometry">
            <mxPoint x="410" y="390" as="sourcePoint" />
            <mxPoint x="480" y="370" as="targetPoint" />
            <Array as="points">
              <mxPoint x="510" y="320" />
              <mxPoint x="510" y="370" />
              <mxPoint x="480" y="370" />
            </Array>
          </mxGeometry>
        </mxCell>
        <mxCell id="o1F89AF8R_W4kwE92R5T-20" value="" style="endArrow=classic;html=1;rounded=0;edgeStyle=orthogonalEdgeStyle;curved=1;exitX=1;exitY=0.5;exitDx=0;exitDy=0;fillColor=#f8cecc;strokeColor=#b85450;entryX=1;entryY=0.5;entryDx=0;entryDy=0;" edge="1" parent="1" source="o1F89AF8R_W4kwE92R5T-15" target="o1F89AF8R_W4kwE92R5T-16">
          <mxGeometry width="50" height="50" relative="1" as="geometry">
            <mxPoint x="490" y="330" as="sourcePoint" />
            <mxPoint x="490" y="380" as="targetPoint" />
            <Array as="points">
              <mxPoint x="500" y="370" />
              <mxPoint x="500" y="390" />
            </Array>
          </mxGeometry>
        </mxCell>
        <mxCell id="o1F89AF8R_W4kwE92R5T-21" value="Page Frame" style="rounded=0;whiteSpace=wrap;html=1;fillColor=#ffe6cc;strokeColor=#d79b00;" vertex="1" parent="1">
          <mxGeometry x="560" y="420" width="80" height="40" as="geometry" />
        </mxCell>
        <mxCell id="o1F89AF8R_W4kwE92R5T-24" value="Page Frame" style="rounded=0;whiteSpace=wrap;html=1;fillColor=#ffe6cc;strokeColor=#d79b00;" vertex="1" parent="1">
          <mxGeometry x="560" y="320" width="80" height="40" as="geometry" />
        </mxCell>
        <mxCell id="o1F89AF8R_W4kwE92R5T-25" value="&lt;font style=&quot;font-size: 13px;&quot;&gt;Inverted Page Table&lt;/font&gt;" style="text;html=1;align=center;verticalAlign=middle;whiteSpace=wrap;rounded=0;" vertex="1" parent="1">
          <mxGeometry x="390" y="160" width="100" height="40" as="geometry" />
        </mxCell>
        <mxCell id="o1F89AF8R_W4kwE92R5T-26" value="&lt;font style=&quot;font-size: 13px;&quot;&gt;Physical Memory&lt;/font&gt;" style="text;html=1;align=center;verticalAlign=middle;whiteSpace=wrap;rounded=0;" vertex="1" parent="1">
          <mxGeometry x="550" y="80" width="100" height="40" as="geometry" />
        </mxCell>
      </root>
    </mxGraphModel>
  </diagram>
</mxfile>
